#!OML:ASF F:\VICON\USERDATA\INSTALL\rory3\rory3.ASF
:FULLY-SPECIFIED
:DEGREES
145
root 0.7350103535056519 17.53042113924957 39.24214112353279 2.9137513559601254 -0.7986334011607018 -0.7657812859824253
lfemur -9.954977817282693 -5.182122684238568 -27.391684939656272
ltibia 47.010911501139034
lfoot -18.890618160533784 7.0439860773070535
ltoes -11.539623540247133
rfemur -41.92760782922632 -6.38110332027161 19.301808847189655
rtibia 95.26357701032615
rfoot 16.315698915912975 -4.87907593786169
rtoes -1.4738105618387163
lowerback nan -1.3698564414989813 -1.9119717988288247
upperback -0.06407352073076744 0.05975097643939575 0.27276211650762083
thorax -7.312456416835047 -0.8649633015233923 2.8788635070919324
lowerneck -20.87072278904684 -4.427909379737009 -2.36757800519262
upperneck 10.214139387007734 -4.379314897287567 4.6216744168685
head 6.852414555111901 -2.300768365236131 1.3091224522316858
lclavicle -9.705282325394279e-15 6.154581576708565e-15
lhumerus -33.47251790913469 -7.920901762827479 86.05674301920618
lradius 123.58796560722001
lwrist 32.432666798306684
lhand -28.075011272370464 2.133239834303299
lfingers nan
lthumb -1.8371469696132914 31.447566843250133
rclavicle -5.500350654488567e-15 6.1311407767917756e-15
rhumerus -59.740875131375645 9.039401242230655 -99.46313145255905
rradius 101.46498058600307
rwrist -23.373542363233543
rhand -19.253020403743104 nan
rfingers nan
rthumb 6.953871172147568 14.336902941070196
146
root 0.753240335349389 17.585425166365827 39.49918352678837 3.0841566847996336 -0.9229208938890298 -0.5589932907057054
lfemur -7.730428141453922 -5.1681191090145475 -27.880792889227706
ltibia 45.68366788563175
lfoot -17.130294902295223 7.053601351121667
ltoes -14.378732896569783
rfemur -43.139501577051895 -6.373002188007156 19.429410255760622
rtibia 93.86769532097497
rfoot 14.960177842266976 -5.013250076456456
rtoes -2.0492432502168274
lowerback nan -1.5541450295623176 -1.92936687021322
upperback -0.1160881033678185 -0.20754441844698523 0.3002008637471649
thorax -7.2814991878396675 -0.9825611553025672 2.9302605303064344
lowerneck -21.456124725901336 -4.24768091665517 -2.372191185958644
upperneck 10.975936126447738 -4.242009317914905 4.5177033363944465
head 7.174534374216722 -2.2053367970450064 1.2995542136361047
lclavicle -1.689941314321208e-14 9.310305642599242e-15
lhumerus -33.213219148541235 -7.4315210942137835 85.57342821566726
lradius 124.9706951662488
lwrist 33.644032647140875
lhand -27.318568769808603 0.874079544173592
lfingers nan
lthumb -1.1363908020883235 30.16840317544186
rclavicle -1.3009912219043279e-14 9.04149935888433e-15
rhumerus -60.38752121043031 9.29421774641134 -99.32673019142337
rradius 102.72198110729882
rwrist -23.54520889864184
rhand -19.14136004507712 nan
rfingers nan
rthumb 7.047017488737072 14.372587156529336
147
root 0.7722340696711861 17.645295829240254 39.962969255809796 3.0823286410462445 -0.8191703406311551 -0.050479449613930694
lfemur -5.25525266261066 -5.216422864223226 -28.628906976523457
ltibia 44.367466993750604
lfoot -14.742835006897124 6.367022772981352
ltoes -18.617950591548695
rfemur -44.073244896577826 -6.58871913312721 19.22111021839201
rtibia 92.00890800018563
rfoot 14.156380280114764 -4.902684924182734
rtoes -3.617735301467757
lowerback nan -1.7553146034187113 -2.131675872024998
upperback -0.279533743307983 -0.5569285851499075 0.2920954107736413
thorax -7.664094000173594 -1.1155483489535682 3.0044815278734385
lowerneck -21.373337789387367 -4.036138428684517 -2.37057045266304
upperneck 11.336967791298372 -4.0231851623316635 4.384307411249933
head 7.235683127136398 -2.0907707667709508 1.2922000527912052
lclavicle -1.0005413770496896e-14 2.2214417791426247e-15
lhumerus -33.26732348423283 -7.051237740175934 85.17216980910881
lradius 126.40141375356546
lwrist 35.0760128558905
lhand -27.16759120199465 0.2662462512184107
lfingers nan
lthumb -0.9783804373651617 29.584770662769788
rclavicle -6.370627187301914e-15 1.632685484927406e-15
rhumerus -61.294279071933275 9.3632687190711 -99.14124321186935
rradius 104.2457055165767
rwrist -23.660386488341857
rhand -18.73772731174081 nan
rfingers nan
rthumb 7.424133557041289 13.849466693312813
148
root 0.781157104989807 17.695764250152354 40.39883062811052 3.1568465505092655 -0.6904382161894621 -0.0182771657214591
lfemur -3.215260016796581 -5.169699468674056 -28.71316875624575
ltibia 43.16402813670694
lfoot -12.248371425832868 4.793395337349548
ltoes -20.004941723030566
rfemur -44.94746897878228 -6.469264881210684 19.89391636689027
rtibia 89.56934311168965
rfoot 14.380826251433254 -4.919941687248889
rtoes -5.040591181580584
lowerback nan -1.9173881002714919 -2.1182860248803603
upperback -0.4493228768009464 -0.8307675555126723 0.4680698010002473
thorax -8.034222081208396 -1.202321919598746 3.1184221536361707
lowerneck -21.3491253419798 -3.8519670955067027 -2.4364020021964725
upperneck 11.631610846145083 -3.7873169207673856 4.2187368256246005
head 7.281417183394105 -1.9847086789559127 1.2898991558644701
lclavicle -5.666158414793572e-15 -3.0342273877028442e-15
lhumerus -33.56532964979154 -6.6027971354433035 85.11864351897782
lradius 127.84628361911412
lwrist 36.22779256913938
lhand -27.12262318048695 -0.05399473262278942
lfingers nan
lthumb -0.8907719211888143 29.27317805505843
rclavicle -2.156723451566906e-15 -3.770608810278701e-15
rhumerus -62.13043371210761 9.50377844156894 -98.69860088867955
rradius 105.47090662060448
rwrist -23.776282970178126
rhand -18.46092202387306 nan
rfingers nan
rthumb 7.667487475601165 13.597540575828466
